<?xml version="1.0" standalone="no"?>
<!DOCTYPE svg PUBLIC "-//W3C//DTD SVG 20010904//EN"
 "http://www.w3.org/TR/2001/REC-SVG-20010904/DTD/svg10.dtd">
<svg version="1.0" xmlns="http://www.w3.org/2000/svg"
 width="83.000000pt" height="83.000000pt" viewBox="0 0 83.000000 83.000000"
 preserveAspectRatio="xMidYMid meet">
<metadata>
Created by potrace 1.11, written by Peter Selinger 2001-2013
</metadata>
<g transform="translate(0.000000,83.000000) scale(0.100000,-0.100000)"
fill="#000000" stroke="none">
<path d="M369 742 c-21 -11 -45 -37 -64 -72 -194 -341 -277 -494 -279 -515 -2
-13 3 -30 10 -36 8 -6 14 -18 14 -25 0 -8 9 -14 19 -14 11 0 21 -5 23 -11 2
-6 18 -12 36 -14 17 -1 29 1 26 6 -8 13 10 11 24 -3 9 -9 12 -9 12 1 0 7 5 9
12 5 7 -4 30 -7 52 -6 23 2 47 2 54 2 6 0 32 0 57 0 25 0 52 0 60 0 27 0 45 0
58 0 6 1 26 -1 44 -3 17 -2 30 1 27 5 -3 4 2 8 11 8 9 0 14 -4 11 -8 -2 -4 11
-8 29 -8 19 0 31 4 28 10 -4 6 1 6 13 2 29 -12 74 -13 81 -3 4 6 1 7 -7 2 -9
-5 -11 -4 -6 3 9 15 12 15 29 -3 13 -13 16 -13 21 1 4 10 2 13 -7 8 -6 -4 -3
2 8 13 11 11 24 18 29 15 5 -3 6 0 2 6 -3 6 -2 13 3 16 21 14 -4 72 -106 244
-24 41 -43 76 -43 78 0 2 -11 21 -23 42 -13 20 -41 69 -62 107 -59 109 -75
135 -94 145 -34 18 -69 18 -102 2z"/>
</g>
</svg>
